<?xml version="1.0" standalone="no"?>
<!DOCTYPE svg PUBLIC "-//W3C//DTD SVG 20010904//EN"
 "http://www.w3.org/TR/2001/REC-SVG-20010904/DTD/svg10.dtd">
<svg version="1.0" xmlns="http://www.w3.org/2000/svg"
 width="512.000000pt" height="512.000000pt" viewBox="0 0 512.000000 512.000000"
 preserveAspectRatio="xMidYMid meet">

<g transform="translate(0.000000,512.000000) scale(0.100000,-0.100000)"
fill="#000000" stroke="none">
<path d="M1971 4173 c-61 -32 -76 -63 -76 -158 0 -96 15 -127 79 -159 69 -34
151 4 174 82 47 156 -59 297 -177 235z m122 -55 c40 -54 32 -182 -14 -224 -30
-27 -84 -23 -116 9 -21 21 -28 38 -31 86 -5 72 1 99 29 135 18 23 27 27 67 24
35 -2 49 -9 65 -30z"/>
<path d="M1640 4015 c0 -158 1 -165 20 -165 18 0 20 7 20 75 l0 75 70 0 c56 0
70 3 70 15 0 12 -14 15 -70 15 l-70 0 0 60 0 60 80 0 c64 0 80 3 80 15 0 12
-18 15 -100 15 l-100 0 0 -165z"/>
<path d="M2230 4016 c0 -158 1 -166 20 -166 17 0 19 8 22 68 l3 67 40 0 c38 0
40 -2 76 -65 25 -45 43 -66 59 -68 21 -4 20 0 -16 66 l-38 69 29 26 c25 21 30
33 30 71 0 73 -25 90 -135 94 l-90 4 0 -166z m170 114 c24 -24 26 -57 4 -88
-13 -19 -24 -22 -75 -22 l-59 0 0 65 0 65 55 0 c42 0 60 -5 75 -20z"/>
<path d="M2530 4016 c0 -163 0 -166 22 -166 21 0 21 2 15 132 -4 78 -3 128 3
122 4 -5 31 -63 58 -129 65 -160 70 -159 137 7 28 70 54 130 57 134 4 3 4 -55
1 -130 -6 -134 -6 -136 15 -136 22 0 22 3 22 166 l0 165 -27 -3 c-25 -3 -32
-15 -79 -133 -29 -71 -55 -129 -60 -128 -4 1 -31 59 -59 130 -46 116 -53 128
-78 131 l-27 3 0 -165z"/>
<path d="M914 3495 c-3 -8 -3 -19 1 -25 9 -15 2647 -14 2662 1 6 6 9 18 6 25
-8 22 -2661 21 -2669 -1z"/>
<path d="M914 3035 c-3 -8 -3 -19 1 -25 4 -7 419 -10 1335 -10 1119 0 1329 2
1333 14 3 7 0 19 -6 25 -8 8 -370 11 -1334 11 -1148 0 -1324 -2 -1329 -15z"/>
<path d="M922 2581 c-8 -5 -12 -17 -10 -27 3 -18 40 -19 1329 -22 1126 -2
1328 0 1338 12 9 11 8 18 -4 30 -15 15 -137 16 -1328 16 -722 0 -1318 -4
-1325 -9z"/>
<path d="M914 2105 c-3 -8 -3 -19 1 -25 10 -16 2661 -14 2667 3 15 38 42 37
-1333 37 -1153 0 -1330 -2 -1335 -15z"/>
<path d="M917 1653 c-4 -3 -7 -15 -7 -25 0 -17 47 -18 1334 -18 1124 0 1335 2
1339 14 3 7 0 19 -6 25 -12 12 -2648 17 -2660 4z"/>
<path d="M912 1168 l3 -23 560 0 560 0 3 23 3 22 -566 0 -566 0 3 -22z"/>
<path d="M3050 1155 c-117 -33 -213 -114 -267 -224 -25 -51 -28 -66 -28 -166
0 -98 3 -116 27 -167 66 -142 215 -238 368 -238 154 0 303 97 368 238 35 76
42 205 17 287 -63 199 -289 324 -485 270z"/>
</g>
</svg>
